PathFileType	4	(X/Y/Z)	/Users/itak/Documents/Research/Walk-IL/dataset/trc/00250_00009.trc
DataRate	CameraRate	NumFrames	NumMarkers	Units	OrigDataRate	OrigDataStartFrame	OrigNumFrames
100.000000	100.000000	4	53	mm	100.000000	353	565
Frame#	Time	RPSI			LPSI			L3			STRN			T10			C7			CLAV			RBAK			LBAK			LSHO			LUPA			LAEL			LAOL			LWTS			LWPS			LFRA			LIFD			LHPS			LHTS			RSHO			RUPA			RAEL			RAOL			RWTS			RWPS			RFRA			RHTS			RHPS			RBHD			LFHD			RFHD			LBHD			LHIP			RHIP			RASI			LASI			LKNE			LTHI			LANK			LTIP			LTOE			LMT1			LMT5			LHEE			RKNE			RTHI			RANK			RTIP			RTOE			RMT1			RMT5			RHEE			RIFD			
		X1	Y1	Z1	X2	Y2	Z2	X3	Y3	Z3	X4	Y4	Z4	X5	Y5	Z5	X6	Y6	Z6	X7	Y7	Z7	X8	Y8	Z8	X9	Y9	Z9	X10	Y10	Z10	X11	Y11	Z11	X12	Y12	Z12	X13	Y13	Z13	X14	Y14	Z14	X15	Y15	Z15	X16	Y16	Z16	X17	Y17	Z17	X18	Y18	Z18	X19	Y19	Z19	X20	Y20	Z20	X21	Y21	Z21	X22	Y22	Z22	X23	Y23	Z23	X24	Y24	Z24	X25	Y25	Z25	X26	Y26	Z26	X27	Y27	Z27	X28	Y28	Z28	X29	Y29	Z29	X30	Y30	Z30	X31	Y31	Z31	X32	Y32	Z32	X33	Y33	Z33	X34	Y34	Z34	X35	Y35	Z35	X36	Y36	Z36	X37	Y37	Z37	X38	Y38	Z38	X39	Y39	Z39	X40	Y40	Z40	X41	Y41	Z41	X42	Y42	Z42	X43	Y43	Z43	X44	Y44	Z44	X45	Y45	Z45	X46	Y46	Z46	X47	Y47	Z47	X48	Y48	Z48	X49	Y49	Z49	X50	Y50	Z50	X51	Y51	Z51	X52	Y52	Z52	X53	Y53	Z53	

354	3.53	-370.3177795410156	1012.149719238281	192.5970306396484	-260.986572265625	1013.543884277344	142.0780792236328	-310.9741516113281	1097.765991210938	159.6799621582031	-195.2961120605469	1278.259765625	394.3000793457031	-322.5230102539062	1222.315063476562	168.4806365966797	-288.2294921875	1482.045776367188	229.7744140625	-209.3037414550781	1396.211669921875	373.6546936035156	-389.1109008789062	1345.391967773438	197.7617492675781	-203.8940277099609	1443.375610351562	157.0118255615234	-111.5419540405273	1441.884521484375	204.3441619873047	-66.54583740234375	1325.396118164062	130.0046539306641	-42.24727249145508	1119.084350585938	102.1436767578125	-125.3986968994141	1105.256469726562	76.71359252929688	-29.13340950012207	877.6835327148438	191.5622711181641	14.05679988861084	865.7933349609375	119.1752777099609	-18.3900146484375	1011.054016113281	101.8070526123047	-25.26620864868164	683.5529174804688	176.0398864746094	19.95378494262695	776.3888549804688	128.6087951660156	6.954071998596191	775.2779541015625	196.1161651611328	-408.6067504882812	1444.310791015625	361.4183654785156	-478.867431640625	1381.342163085938	373.4270324707031	-532.0213623046875	1101.724731445312	357.7704772949219	-467.012939453125	1097.146728515625	288.4526977539062	-417.3417053222656	897.401611328125	466.2402954101562	-497.5332946777344	876.0457763671875	448.2725219726562	-527.8779907226562	1032.754150390625	388.0204772949219	-404.1054077148438	777.0406494140625	509.9930419921875	-473.175537109375	772.3451538085938	486.3223266601562	-309.3927612304688	1638.688842773438	288.0949096679688	-138.2101287841797	1679.343627929688	432.4443359375	-228.6794738769531	1674.359252929688	474.7340087890625	-170.2200927734375	1649.802001953125	273.1747436523438	-92.1640625	952.750732421875	182.3985595703125	-427.3521118164062	971.9828491210938	325.9659118652344	-360.20458984375	1010.761596679688	400.9867553710938	-102.3441543579102	996.1240844726562	292.2079162597656	-36.99100112915039	511.9356994628906	386.8042602539062	-34.24288177490234	636.3532104492188	309.9957885742188	13.76585388183594	35.6294059753418	488.4268188476562	-7.822532176971436	287.7539978027344	421.2926940917969	17.5799503326416	129.1376647949219	684.0438842773438	-41.42168045043945	96.79129791259766	640.7860107421875	60.86030960083008	77.06739807128906	597.95751953125	-53.37451553344727	25.06053161621094	443.9436340332031	-409.780029296875	493.6311950683594	246.8786163330078	-420.5740966796875	746.1138916015625	348.5686645507812	-481.7198486328125	53.6418342590332	30.18220329284668	-402.5599975585938	375.8304443359375	206.862548828125	-318.1079711914062	41.82407760620117	166.1117095947266	-320.6184997558594	43.72248458862305	95.97700500488281	-435.6505737304688	38.51308822631836	130.7646179199219	-478.0018920898438	68.48632049560547	-54.32235336303711	-391.4852600097656	704.9710693359375	480.2471313476562	
355	3.54	-363.0762329101562	1011.319946289062	200.8081970214844	-253.4649047851562	1012.8330078125	150.7857513427734	-303.5954895019531	1096.369873046875	167.7774047851562	-189.7247772216797	1277.98095703125	402.594970703125	-315.1180419921875	1220.968505859375	176.010009765625	-281.469970703125	1481.069213867188	236.5253295898438	-203.7131500244141	1395.782470703125	381.3323364257812	-381.8912963867188	1344.09619140625	204.1040802001953	-196.5805816650391	1442.150756835938	164.4002532958984	-104.6221466064453	1440.822143554688	212.5811462402344	-58.9286994934082	1324.019897460938	139.1824340820312	-34.04710006713867	1117.583374023438	112.5005035400391	-117.0611801147461	1103.60302734375	86.38490295410156	-21.60083198547363	876.3943481445312	202.5300750732422	22.22566604614258	864.3981323242188	130.5778961181641	-10.133864402771	1009.605407714844	112.6833953857422	-17.50808143615723	682.2552490234375	187.4086151123047	28.09590911865234	775.024169921875	140.2261657714844	14.50166034698486	774.0272216796875	207.6287994384766	-402.9911193847656	1443.517944335938	367.2606811523438	-473.287353515625	1380.472290039062	378.8055725097656	-526.235595703125	1100.885498046875	362.97802734375	-460.2086181640625	1096.18603515625	294.5492248535156	-413.737060546875	895.8496704101562	472.3294067382812	-493.7737731933594	874.8992309570312	453.3936462402344	-522.6713256835938	1031.897216796875	393.170166015625	-401.547607421875	775.31005859375	515.957275390625	-470.3955383300781	771.020263671875	491.4604797363281	-303.2756958007812	1638.156005859375	294.4026794433594	-133.0830383300781	1678.956298828125	439.8547973632812	-223.7459564208984	1674.055908203125	481.5543212890625	-164.0124053955078	1649.217163085938	280.4413146972656	-84.94842529296875	952.1603393554688	192.4846954345703	-419.7809448242188	970.8912353515625	334.3404235839844	-354.8276062011719	1010.2041015625	409.3319702148438	-95.91048431396484	995.426513671875	302.0806884765625	-32.65996170043945	511.4229125976562	397.2314453125	-29.54363059997559	635.6578979492188	320.8117980957031	14.30160808563232	33.97907257080078	491.8369750976562	-5.217850208282471	286.3379211425781	429.9883117675781	17.71782875061035	119.5428771972656	691.1636962890625	-41.44733810424805	89.42285919189453	646.4842529296875	60.80035018920898	70.55081939697266	603.1663208007812	-53.04254150390625	26.23648643493652	446.7769775390625	-405.5985107421875	493.52197265625	252.9832000732422	-415.3192749023438	745.4503173828125	355.9375	-481.4419555664062	56.13274383544922	31.06375122070312	-399.3140563964844	375.8950805664062	211.9326324462891	-318.0169677734375	41.80617523193359	166.3547821044922	-320.4693298339844	44.40797805786133	96.45252227783203	-435.3983459472656	38.69485473632812	131.2658996582031	-477.6592712402344	72.67604827880859	-53.22974014282227	-388.9379272460938	703.2608642578125	486.1717834472656	
356	3.55	-355.962646484375	1010.629638671875	209.2701110839844	-246.1574096679688	1012.401306152344	159.5777130126953	-296.3050842285156	1095.160766601562	175.9999237060547	-184.145263671875	1277.930419921875	410.9327392578125	-307.7150573730469	1219.827514648438	183.6269226074219	-274.7023315429688	1480.288208007812	243.3313293457031	-198.1009826660156	1395.574462890625	389.0504760742188	-374.6165161132812	1342.976684570312	210.5152893066406	-189.2532196044922	1441.141967773438	171.8350067138672	-97.70073699951172	1439.960327148438	220.8625640869141	-51.28963851928711	1322.8427734375	148.4312286376953	-25.81127548217773	1116.278198242188	123.020881652832	-108.6416702270508	1102.1328125	96.22386169433594	-14.10472393035889	875.2886352539062	213.6202545166016	30.42982864379883	863.202880859375	142.1086273193359	-1.843139886856079	1008.362060546875	123.7105712890625	-9.651952743530273	681.1566162109375	198.9009857177734	36.27996444702148	773.860107421875	151.9664916992188	22.09335517883301	772.9718627929688	219.2546539306641	-397.352294921875	1442.911865234375	373.1450805664062	-467.6681213378906	1379.763061523438	384.2157287597656	-520.3286743164062	1100.203247070312	368.2867431640625	-453.3535461425781	1095.371215820312	300.7339782714844	-410.0729370117188	894.4407958984375	478.4724731445312	-489.935791015625	873.9215698242188	458.5996704101562	-517.3668823242188	1031.207641601562	398.4125061035156	-398.9476013183594	773.7603759765625	521.9907836914062	-467.5482788085938	769.8767700195312	496.7137756347656	-297.1523742675781	1637.846435546875	300.7263488769531	-127.9438247680664	1678.8154296875	447.2717590332031	-218.8016357421875	1673.99658203125	488.3820190429688	-157.7905426025391	1648.84912109375	287.7158508300781	-77.82707214355469	952.0286254882812	202.4988403320312	-412.3822937011719	969.840087890625	342.8919067382812	-349.3240051269531	1009.778991699219	417.8381652832031	-89.50548553466797	995.0562133789062	311.900634765625	-28.19359016418457	511.4079284667969	407.73046875	-24.81392669677734	635.4187622070312	331.6539001464844	14.88982200622559	32.75030136108398	494.5690002441406	-2.38864541053772	285.38720703125	438.5486450195312	17.76723098754883	109.4846038818359	697.7433471679688	-41.48890686035156	81.89476776123047	651.5404663085938	60.79947280883789	63.96952056884766	607.7427978515625	-52.58419036865234	27.9065113067627	448.9950866699219	-400.9766540527344	493.3614807128906	259.5980834960938	-409.7460021972656	744.7841796875	363.626708984375	-481.0970458984375	58.94287872314453	32.09043121337891	-395.7107849121094	375.9322509765625	217.4494018554688	-317.8968811035156	41.79039764404297	166.5933685302734	-320.1827697753906	45.14744567871094	96.96137237548828	-435.0255126953125	38.96241760253906	131.820068359375	-477.1864929199219	77.31521606445312	-51.91040802001953	-386.3736267089844	701.7156372070312	492.2025451660156	
357	3.56	-349.027099609375	1010.093811035156	217.9706726074219	-239.1295623779297	1012.253784179688	168.4526824951172	-289.1468811035156	1094.183959960938	184.3484191894531	-178.5573120117188	1278.119262695312	419.2952880859375	-300.3570861816406	1218.931518554688	191.3176727294922	-267.9490356445312	1479.725830078125	250.1936798095703	-192.4651794433594	1395.602294921875	396.7983703613281	-367.3118591308594	1342.069458007812	217.0061492919922	-181.9391632080078	1440.38525390625	179.3186492919922	-90.79752349853516	1439.335205078125	229.1798095703125	-43.6469841003418	1321.908325195312	157.7379150390625	-17.56526756286621	1115.212768554688	133.7032165527344	-100.158561706543	1100.889770507812	106.2268753051758	-6.651831150054932	874.4143676757812	224.8316802978516	38.66466522216797	862.2570190429688	153.7688293457031	6.46088171005249	1007.369445800781	134.8881378173828	-1.724750995635986	680.294189453125	210.4935607910156	44.50474548339844	772.9452514648438	163.8234558105469	29.72075080871582	772.1539916992188	230.9857025146484	-391.7015380859375	1442.52685546875	379.0837707519531	-462.0211181640625	1379.256225585938	389.6699829101562	-514.2988891601562	1099.713256835938	373.6921081542969	-446.4390258789062	1094.74609375	307.0129699707031	-406.3304138183594	893.205078125	484.6725769042969	-486.0240783691406	873.1535034179688	463.8799743652344	-511.9704895019531	1030.724975585938	403.7416381835938	-396.309814453125	772.4161987304688	528.084228515625	-464.6514892578125	768.9482421875	502.0565185546875	-291.0257263183594	1637.766235351562	307.0734252929688	-122.7894592285156	1678.930541992188	454.6970520019531	-213.8537139892578	1674.190307617188	495.2199096679688	-151.5610198974609	1648.708129882812	295.0021667480469	-70.84098052978516	952.3688354492188	212.3992004394531	-405.3252563476562	968.8841552734375	351.5490417480469	-343.6722106933594	1009.496643066406	426.48681640625	-83.13886260986328	995.06005859375	321.6312866210938	-23.54509735107422	511.9092712402344	418.3012390136719	-20.01334953308105	635.7183227539062	342.5560302734375	15.58243465423584	31.89497947692871	496.7547607421875	0.7246158123016357	284.8824462890625	446.9157104492188	17.80043029785156	99.48304748535156	703.6140747070312	-41.46666717529297	74.62126922607422	655.8809204101562	60.95585250854492	57.61626052856445	611.6719970703125	-51.95329284667969	29.84013175964355	450.7727966308594	-395.9254455566406	493.1512145996094	266.7912902832031	-403.8587951660156	744.1417236328125	371.6315002441406	-480.6535949707031	62.10115814208984	33.27267456054688	-391.7705383300781	375.9432067871094	223.4789581298828	-317.7511596679688	41.77780151367188	166.8179626464844	-319.7531433105469	45.94183731079102	97.50613403320312	-434.5300903320312	39.31938171386719	132.4148864746094	-476.5240478515625	82.45616149902344	-50.33325958251953	-383.8087158203125	700.3587646484375	498.3151245117188	
